<svg xmlns="http://www.w3.org/2000/svg" id="Layer_2" data-name="Layer 2" viewBox="0 0 454.6 72.65"><defs><style>      .cls-1 {        fill: #e5b80b;        stroke-width: 0px;      }    </style></defs><g id="Layer_2-2" data-name="Layer 2"><g id="Layer_1-2" data-name="Layer 1-2"><g><path class="cls-1" d="M0,57.05V9.47c0-.97.09-1.95.14-3.15,5.61-.77,10.98-1.44,16.45-.77,7.28.9,12.25,4.31,13.37,9.31,1.31,5.85-.62,9.59-7.73,14.55,3.61,1.81,7.11,3.52,8.79,7.4,4.13,9.61-2.43,19.05-14.46,20.15-5.26.48-10.6.08-16.57.08h0ZM7.41,32.21c-1.05,3.27-.44,6.43-.54,9.54-.11,3.28-.02,6.58-.02,10,6.46,1.42,12.38,1.28,16.96-3.41,2.86-2.93,3.24-7.1,1.01-10.61-4.15-6.55-10.89-5.72-17.41-5.52ZM7,27.28c6.11.35,12.13,1.41,16.05-4.52,1.94-2.93,1.7-6.19-.51-8.84-4.18-5.01-9.84-3.43-15.53-3.38v16.74h0Z"></path><path class="cls-1" d="M289.68,20.58c-.83,12.85.89,25.52-.97,38.07-1.37,9.25-6.66,13.57-15.91,13.93-4.63.18-9.28.14-13.24-2.62-.49-1.82.21-3.1,1.28-4.6,6.16,2.63,12.66,4.59,18.55-.27,4.05-3.35,4.28-8.32,3.67-13.89-3.79,3.78-7.98,5.89-12.97,5.36-8.19-.86-13.18-5.95-14.37-15.85-1.11-9.27,3.96-21.74,17.31-21.24,4.26.16,7.5,2.1,10.2,5.23,1.33-1.28.7-3.01,1.49-4.33,1.4-.46,2.84-.48,4.95.2h0ZM283.01,37.66c0-1.5.23-3.03-.04-4.48-.75-4.03-3.03-6.95-6.91-8.46-3.67-1.43-6.94-.25-9.74,2.05-5.74,4.73-5.99,16.95-.61,22.15,5.29,5.12,13.61,3.39,16.44-3.42,1.05-2.54,1-5.19.86-7.85h0Z"></path><path class="cls-1" d="M165.89,30.28h16.12v22.94c-9.25,5.05-27.93,4.31-35.34-4.2-7.57-8.69-8.09-23.53-1.04-33.03,7.24-9.76,23.66-12.4,34.67-7.44.14,1.61-.62,2.95-1.44,4.26-14.63-3.23-23.86-.86-28.79,7.37-4.53,7.54-3.49,18.92,2.02,25.29,4.43,5.11,14.71,8.02,23.93,4.25v-14.43h-9.3c-1.7-1.63-1.13-3.14-.81-5h0Z"></path><path class="cls-1" d="M84.01,4.61c2.03-.37,3.75-.42,6,.14v20.86c3.06-2.25,5.12-4.39,8.14-5.1,10.87-2.57,19.81,5.87,18.92,18.1-.18,2.49-.85,4.97-1.54,7.39-3.2,11.27-19.02,14.27-25.76,4.41-1.53,1.44-.32,3.37-1.08,5.02-1.3.96-2.87.37-4.67.32V4.61ZM90.11,38.28c0,1.58-.06,2.75.01,3.91.35,5.43,3.61,9.25,8.61,10.16,5.08.93,9.57-1.39,11.67-6.41,2.37-5.66,2.32-11.32-.91-16.71-3.36-5.6-10.51-6.59-15.43-2.33-3.68,3.19-4.2,7.34-3.94,11.38h0Z"></path><path class="cls-1" d="M56.45,57.4c-10.49-.05-17.22-7.49-17.14-18.96.08-11.5,7.1-18.92,17.91-18.95,10.62-.02,17.64,7.29,17.74,18.5.11,11.93-7.07,19.45-18.52,19.4h.01ZM68.01,38.47c.04-8.9-5.02-14.86-12.18-14.36-5.68.39-9.95,5.64-10.64,13.06-.74,8.04,4.47,15.51,11.02,15.78,6.63.27,11.77-6.04,11.8-14.47h0Z"></path><path class="cls-1" d="M213.87,38.26c.41-11.98,7.78-19.18,19.2-18.76,10.46.38,16.78,8.16,16.41,20.2-.34,10.99-7.96,18.04-19.12,17.69-10.12-.31-16.87-8.14-16.49-19.13ZM231.73,24.11c-5.25,0-9.05,3.24-10.81,9.24-2.53,8.6,1.82,18.08,8.95,19.5,6.41,1.28,12.36-4.2,13.16-12.98.77-8.38-4.08-16.02-11.29-15.77h-.01Z"></path><path class="cls-1" d="M344.27,57.28h-6.26V20.86c1.63-.65,3.2-.57,5.1.03.12,1.37.24,2.81.38,4.49,2.15,0,2.7-1.94,3.89-2.8,8.75-6.25,20.06-2.02,21.09,8.59.83,8.53.17,17.2.17,25.72-1.91.86-3.56.45-5.94.38,0-5.4.03-10.82-.01-16.25-.02-2.66.09-5.36-.32-7.97-.88-5.52-4.37-8.6-8.92-8.27-4.96.36-8.79,4.36-8.9,9.65-.14,6.49-.03,12.98-.05,19.47,0,.97-.12,1.94-.21,3.36l-.02.02Z"></path><path class="cls-1" d="M320.19,32.28c-1.49-8.9-5.54-10.38-17.62-6.66-1.47-.67-1.24-2.11-1.53-3.42,4.52-3.14,9.64-3.45,14.79-2.84,6.52.76,10.38,5.41,10.6,12.92.24,7.94.05,15.9.05,23.83-1.46,1.13-2.98.28-4.2.64-1.56-1.1-.58-3.14-2.16-4.1-.31.16-.79.29-1.09.59-2.44,2.47-5.32,3.78-8.86,3.86-6.08.14-10.39-2.38-11.72-7.1-1.51-5.34.68-10.64,5.79-13.55,3.06-1.74,6.44-2.62,9.96-2.81,1.97-.11,3.99.13,5.98-1.36h0ZM320.01,38.11c-4.01-.23-7.47-.06-10.73,1.36-4.44,1.94-6.3,6.35-4.36,10.16,1.73,3.39,6.49,4.47,10.46,2.23,5.48-3.1,5.3-8.17,4.63-13.76h0Z"></path><path class="cls-1" d="M445.01,44.16c-5.55.07-9.83-4.07-9.86-9.55-.04-5.49,4.17-9.67,9.74-9.67,5.14,0,9.49,4.17,9.7,9.29.22,5.2-4.28,9.86-9.58,9.92h0Z"></path><path class="cls-1" d="M444.01,19.32c-5.49.04-9.59-3.77-9.77-9.06-.18-5.65,4.32-10.32,9.86-10.22,4.98.09,9.48,4.56,9.6,9.56.13,5.38-4.17,9.69-9.69,9.73h0Z"></path><path class="cls-1" d="M454.14,59.43c-.06,5.19-4.84,9.8-10,9.64-5.31-.16-9.61-4.77-9.45-10.14.16-5.35,4.17-9.14,9.69-9.15,5.54,0,9.83,4.23,9.77,9.64h0Z"></path><path class="cls-1" d="M418.89,19.28c-5.67.04-9.75-3.94-9.77-9.56-.03-5.28,4.03-9.56,9.22-9.72,5.3-.17,9.91,4.16,10.1,9.45.19,5.45-4.03,9.79-9.54,9.83h-.01Z"></path><path class="cls-1" d="M409.12,59.28c.08-5.55,4.26-9.48,9.95-9.36,5.34.11,9.33,4.16,9.36,9.48.02,5.27-4.49,9.79-9.79,9.8-5.38,0-9.59-4.38-9.51-9.92h0Z"></path><path class="cls-1" d="M392.99,19.32c-5.66-.03-9.63-4.08-9.56-9.73.07-5.43,4.51-9.71,9.9-9.54,5.25.17,9.28,4.31,9.34,9.63.07,5.52-4.11,9.68-9.69,9.65h.01Z"></path><path class="cls-1" d="M403.01,34.35c.09,5.33-3.87,9.62-9.06,9.81-5.92.21-10.18-3.84-10.18-9.66,0-5.38,3.89-9.38,9.28-9.56,5.55-.18,9.86,3.9,9.96,9.4h0Z"></path><path class="cls-1" d="M418.83,44.16c-5.56.08-9.74-4.08-9.72-9.66.03-5.4,3.99-9.46,9.32-9.55,5.66-.1,9.89,3.87,10.01,9.4.12,5.52-4.01,9.73-9.61,9.81h0Z"></path><path class="cls-1" d="M393.31,50.28c5.32.09,9.35,4.18,9.35,9.47s-4.26,9.85-9.67,9.81c-5.45-.04-9.65-4.38-9.57-9.88.09-5.65,4.13-9.5,9.88-9.4h.01Z"></path><path class="cls-1" d="M198.86,56.28c-2.21.71-3.83.53-5.85.25V20.31c1.4-.9,2.95-.64,4.6-.07.2,1.81.39,3.59.67,6.16,3.29-3.98,5.98-8.24,11.55-6.85,1.14,1.52.4,3.03.64,4.33-.39.36-.59.72-.85.77-7.46,1.51-10.53,4.95-10.72,12.53-.16,6.29-.03,12.58-.03,19.1h0Z"></path></g></g></g></svg>